<?xml version="1.0" standalone="no"?>
<!DOCTYPE svg PUBLIC "-//W3C//DTD SVG 20010904//EN"
 "http://www.w3.org/TR/2001/REC-SVG-20010904/DTD/svg10.dtd">
<svg version="1.0" xmlns="http://www.w3.org/2000/svg"
 width="256.000000pt" height="256.000000pt" viewBox="0 0 256.000000 256.000000"
 preserveAspectRatio="xMidYMid meet">
<metadata>
Created by potrace 1.11, written by Peter Selinger 2001-2013
</metadata>
<g transform="translate(0.000000,256.000000) scale(0.100000,-0.100000)"
fill="#000000" stroke="none">
<path d="M539 2246 c-2 -2 -29 -6 -60 -9 -67 -7 -80 -12 -144 -51 -84 -52
-133 -115 -160 -208 -14 -49 -15 -127 -13 -645 l3 -588 28 -56 c58 -116 173
-198 289 -205 60 -3 120 -5 163 -4 11 1 92 1 180 1 88 0 193 1 233 2 39 1 72
0 72 -3 0 -3 61 -3 136 0 75 3 137 3 140 1 5 -5 176 -3 210 4 61 11 70 14 114
39 102 58 175 162 186 268 8 71 10 198 4 198 -3 0 -3 22 -2 48 4 48 -13 82
-40 82 -6 0 -34 -24 -63 -52 l-53 -53 -3 -115 c-3 -125 -16 -164 -67 -208 -48
-41 -86 -51 -194 -51 -57 0 -155 0 -218 0 -63 0 -124 0 -135 -1 -11 0 -40 0
-65 1 -25 1 -49 1 -55 1 -68 -5 -155 -6 -155 -2 0 3 -27 3 -60 0 -33 -3 -60
-3 -60 0 0 3 -27 3 -60 0 -33 -3 -60 -3 -60 0 0 3 -33 4 -72 4 -94 -2 -129 8
-172 51 -58 56 -65 84 -66 277 -1 95 -1 180 -1 188 1 8 1 35 0 60 -1 25 -1 52
0 60 1 8 1 35 0 60 -1 25 -1 51 0 58 2 20 2 41 2 177 -1 333 1 356 23 398 12
22 40 52 62 68 40 27 117 52 128 42 3 -3 27 -5 53 -4 26 1 55 2 63 2 51 -1
411 -1 418 0 4 1 12 1 17 0 11 -3 198 -1 298 2 37 1 67 0 67 -3 0 -3 45 -5 99
-5 97 0 100 1 131 30 40 38 53 61 45 84 -9 30 -110 52 -232 51 -24 -1 -49 -1
-55 -1 -7 0 -92 0 -188 1 -194 1 -434 1 -465 0 -11 0 -40 0 -65 1 -25 1 -52 1
-60 0 -32 -2 -104 0 -110 4 -4 3 -9 3 -11 1z"/>
<path d="M2029 2216 c-32 -16 -139 -121 -139 -136 0 -14 337 -350 351 -350 6
0 40 30 75 66 65 68 83 108 70 158 -6 23 -180 208 -240 254 -32 25 -79 28
-117 8z"/>
<path d="M1379 1579 c-231 -231 -420 -428 -420 -437 1 -235 0 -295 -4 -302 -2
-4 1 -15 8 -24 11 -15 33 -17 185 -17 l171 0 421 421 420 420 -88 88 c-48 48
-129 129 -180 180 l-92 92 -421 -421z m435 245 c9 -3 16 -12 16 -20 0 -14
-454 -474 -468 -474 -10 0 -32 22 -32 32 0 8 457 468 464 468 3 0 11 -3 20 -6z
m-493 -665 c49 -49 89 -92 89 -95 0 -2 -30 -35 -68 -72 -55 -55 -74 -68 -105
-70 l-37 -4 0 56 c0 30 -4 57 -9 60 -4 3 -31 6 -60 7 -51 2 -51 2 -51 35 0 28
12 45 68 103 37 38 71 70 75 70 4 1 48 -40 98 -90z"/>
</g>
</svg>
